<svg width="0" height="0" class="hidden">
	<symbol fill="inherit" xmlns="http://www.w3.org/2000/svg" viewBox="0 0 14 13" id="like">
		<path
			opacity="1"
			fill-rule="evenodd"
			clip-rule="evenodd"
			d="M0 11.73C0 12.43.6 13 1.33 13H9c2.08.02 3.4-.55 3.96-2a94 94 0 001-3.62c.24-1.06-.56-2-1.72-2h-2.4c-.19 0-.31-.13-.28-.3l.22-1.06c.15-.78.23-1.4.22-1.81.01-.66-.36-1.22-.95-1.65-.32-.24-.8-.46-.8-.46A1.01 1.01 0 006.9.55S5 4.51 4.83 4.81c-.16.3-.58.58-.95.58H1.33A1.3 1.3 0 000 6.65v5.08zm9.02 0c1.48.01 2.21-.27 2.58-.95h-.27a.65.65 0 01-.66-.64c0-.35.3-.63.66-.63H12l.18-.63h-.51a.65.65 0 01-.67-.64c0-.35.3-.63.67-.63h.85l.13-.49c.06-.28-.1-.46-.4-.46H9.83c-1.03 0-1.78-.87-1.58-1.83 0-.04.2-.96.2-1.03.15-.74.21-1.27.2-1.57v-.05c.01-.19-.11-.39-.43-.62a7.4 7.4 0 00-.27-.17L6.04 5.35A2.47 2.47 0 014 6.65v5.08h5.02zM2.67 6.66H1.33v5.07h1.34V6.66z"
			fill="inherit"></path>
	</symbol>
	<symbol
		fill="inherit"
		version="1.1"
		xmlns="http://www.w3.org/2000/svg"
		id="playlist"
		x="0"
		y="0"
		viewBox="0 0 612 612">
		<path
			fill="inherit"
			d="M63.3 73.9a63.3 63.3 0 100 126.6 63.3 63.3 0 000-126.6zm0 168.8a63.3 63.3 0 100 126.6 63.3 63.3 0 000-126.6zm0 168.8a63.3 63.3 0 100 126.6 63.3 63.3 0 000-126.6zm168.8-232.1h337.7a42.2 42.2 0 100-84.4H232a42.2 42.2 0 100 84.4zm337.7 84.4H232a42.2 42.2 0 100 84.4h337.7a42.2 42.2 0 100-84.4zm0 168.8H232a42.2 42.2 0 100 84.4h337.7a42.2 42.2 0 100-84.4z" />
	</symbol>
	<symbol
		fill="inherit"
		id="refresh"
		version="1.1"
		xmlns="http://www.w3.org/2000/svg"
		x="0"
		y="0"
		viewBox="0 0 489.5 489.5"
		xml:space="preserve">
		<path
			fill="inherit"
			d="M268.2 488.2A214.2 214.2 0 00246 61.4V3.8c0-3.2-4-5-6.7-3L120.8 88c-2 1.5-2 4.4 0 5.9l118.6 87c2.7 2 6.7.3 6.7-2.8v-57.5a155.2 155.2 0 01152.3 165.6 155.9 155.9 0 01-144.7 144.2 155.3 155.3 0 01-163.2-130 29.5 29.5 0 00-58.3 8.9 214.4 214.4 0 00236 178.9z" />
	</symbol>
	<symbol
		stroke="inherit"
		version="1.1"
		fill="none"
		id="search"
		xmlns="http://www.w3.org/2000/svg"
		x="0"
		y="0"
		viewBox="0 0 26 26"
		xml:space="preserve">
		<g stroke="inherit" stroke-width="3">
			<path d="M18.6 14.8a7.5 7.5 0 1 1-14.2-5 7.5 7.5 0 0 1 14.2 5Z" />
			<path stroke-linecap="round" d="m17.4 18.1 4 3.6" />
		</g>
	</symbol>
	<symbol
		stroke="inherit"
		version="1.1"
		fill="none"
		id="views"
		xmlns="http://www.w3.org/2000/svg"
		x="0"
		y="0"
		viewBox="0 0 26 18"
		xml:space="preserve">
		<g stroke="inherit" stroke-width="2">
			<path
				d="M22 6.5a34 34 0 0 0 2 2.3l-1.7 2c-.8 1-1.5 2-2.4 2.8a10.1 10.1 0 0 1-7.6 2.9 9.1 9.1 0 0 1-7.3-3l-2-2.6-.1-.2-1.5-2 1.5-1.9.1-.2L5 4c1.6-1.6 3.7-3 7.3-3C16 1 18 2.2 19.7 3.7c.8.8 1.5 1.6 2.2 2.6l.2.2Z" />
			<circle cx="12.5" cy="8.8" r="4" />
		</g>
	</symbol>
	<symbol
		stroke="inherit"
		version="1.1"
		fill="none"
		id="date"
		xmlns="http://www.w3.org/2000/svg"
		x="0"
		y="0"
		viewBox="0 0 21 21"
		xml:space="preserve">
		<g stroke="inherit" stroke-width="2">
			<circle cx="10.4" cy="10.5" r="9" />
			<path stroke-linecap="round" d="M10.4 5.4v6M10.5 11.7l3 2.1" />
		</g>
	</symbol>
	<symbol
		viewBox="0 0 22 22"
		fill="inherit"
		stroke-width="0"
		xmlns="http://www.w3.org/2000/svg"
		id="update">
		<path
			stroke-width="0"
			fill-rule="evenodd"
			clip-rule="evenodd"
			d="M0 11c0-1.9 0-2.8.6-3.4C1.2 7 2 7 4 7h2.1v2H4.4c-.9 0-1.4 0-1.7.3-.3.3-.3.8-.3 1.7v7c0 1 0 1.4.3 1.7.3.3.8.3 1.7.3h13.2c.9 0 1.4 0 1.7-.3.3-.3.3-.8.3-1.7v-7c0-1 0-1.4-.3-1.7-.3-.3-.8-.3-1.7-.3h-1.7V7H18c1.9 0 2.8 0 3.4.6.6.6.6 1.5.6 3.4v7c0 1.9 0 2.8-.6 3.4-.6.6-1.5.6-3.4.6H4c-1.9 0-2.8 0-3.4-.6C0 20.8 0 20 0 18v-7Z"
			fill="inherit" />
		<path
			stroke-width="0"
			d="M10 5h2v10a1 1 0 1 1-2 0V5ZM10.2 1c.4-.5.6-.7.8-.7.2 0 .4.2.8.7l1.9 2.4c.6.7.8 1 .7 1.3-.1.3-.6.3-1.5.3H9.1c-1 0-1.4 0-1.5-.3-.1-.3.1-.6.7-1.3l2-2.4Z"
			fill="inherit" />
	</symbol>
</svg>
