<svg width="0" height="0" class="hidden">
	<symbol
		stroke-width="0"
		fill="inherit"
		xmlns="http://www.w3.org/2000/svg"
		viewBox="0 0 328.3 328.3"
		style="enable-background: new 0 0 328.299 328.299"
		xml:space="preserve"
		id="like">
		<path
			d="M236.8 27.6c-29.6 0-56 14.1-72.7 35.9A91.4 91.4 0 0 0 0 119.2c0 113.2 164.1 181.5 164.1 181.5s164.2-67.3 164.2-181.5c0-50.6-41-91.6-91.5-91.6z" />
	</symbol>
	<symbol
		fill="inherit"
		version="1.1"
		xmlns="http://www.w3.org/2000/svg"
		id="playlist"
		x="0"
		y="0"
		viewBox="0 0 612 612">
		<path
			fill="inherit"
			d="M63.3 73.9a63.3 63.3 0 100 126.6 63.3 63.3 0 000-126.6zm0 168.8a63.3 63.3 0 100 126.6 63.3 63.3 0 000-126.6zm0 168.8a63.3 63.3 0 100 126.6 63.3 63.3 0 000-126.6zm168.8-232.1h337.7a42.2 42.2 0 100-84.4H232a42.2 42.2 0 100 84.4zm337.7 84.4H232a42.2 42.2 0 100 84.4h337.7a42.2 42.2 0 100-84.4zm0 168.8H232a42.2 42.2 0 100 84.4h337.7a42.2 42.2 0 100-84.4z" />
	</symbol>
	<symbol
		fill="inherit"
		id="refresh"
		version="1.1"
		xmlns="http://www.w3.org/2000/svg"
		x="0"
		y="0"
		viewBox="0 0 489.5 489.5"
		xml:space="preserve">
		<path
			fill="inherit"
			d="M268.2 488.2A214.2 214.2 0 00246 61.4V3.8c0-3.2-4-5-6.7-3L120.8 88c-2 1.5-2 4.4 0 5.9l118.6 87c2.7 2 6.7.3 6.7-2.8v-57.5a155.2 155.2 0 01152.3 165.6 155.9 155.9 0 01-144.7 144.2 155.3 155.3 0 01-163.2-130 29.5 29.5 0 00-58.3 8.9 214.4 214.4 0 00236 178.9z" />
	</symbol>
	<symbol
		stroke="inherit"
		version="1.1"
		fill="none"
		id="search"
		xmlns="http://www.w3.org/2000/svg"
		x="0"
		y="0"
		viewBox="0 0 26 26"
		xml:space="preserve">
		<g stroke="inherit" stroke-width="3">
			<path d="M18.6 14.8a7.5 7.5 0 1 1-14.2-5 7.5 7.5 0 0 1 14.2 5Z" />
			<path stroke-linecap="round" d="m17.4 18.1 4 3.6" />
		</g>
	</symbol>
	<symbol
		version="1.1"
		fill="inherit"
		stroke-width="0"
		id="views"
		xmlns="http://www.w3.org/2000/svg"
		viewBox="0 0 22 18"
		xml:space="preserve">
		<path
			d="M11 18C6 18 0 13 0 9s6-9 11-9 11 5 11 9-6 9-11 9Zm0-14a5 5 0 1 0 0 10 5 5 0 0 0 0-10Z"
			fill="inherit" />
		<circle cx="11" cy="9" r="3" fill="inherit" />
	</symbol>
	<symbol
		stroke-width="0"
		version="1.1"
		fill="inherit"
		id="date"
		xmlns="http://www.w3.org/2000/svg"
		viewBox="0 0 512 512"
		style="enable-background: new 0 0 512 512"
		xml:space="preserve">
		<path
			d="M256 0a256 256 0 1 0 0 512 256 256 0 0 0 0-512zm109.7 301.7H210.3V146.3H265v100.6h100.6v54.8z" />
	</symbol>
	<symbol
		viewBox="0 0 48 48"
		fill="none"
		stroke-width="0"
		stroke="inherit"
		xmlns="http://www.w3.org/2000/svg"
		id="update">
		<path fill="none" d="M0 0h48v48H0z" />
		<path
			d="M11.7 20.3A10 10 0 0 0 14 40v0c1 0 1.9-.1 2.7-.4M36 20.3A10 10 0 0 1 33.8 40v0c-1 0-1.8-.1-2.7-.4M36 20a12 12 0 0 0-24 0M17 30.1l7 7 7.1-7.1M24 20v13.5"
			stroke="inherit"
			stroke-width="4"
			stroke-linecap="round"
			stroke-linejoin="round" />
	</symbol>
</svg>
