<svg width="0" height="0" class="hidden">
	<symbol
		stroke-width="0"
		viewBox="0 0 21 20"
		fill="inherit"
		xmlns="http://www.w3.org/2000/svg"
		id="play">
		<path
			d="M20 8.7 5.2.2A1.5 1.5 0 0 0 3 1.5v17a1.5 1.5 0 0 0 2.2 1.3L20 11.3a1.5 1.5 0 0 0 0-2.6Z"
			fill="inherit" />
	</symbol>
	<symbol
		fill="inherit"
		xmlns="http://www.w3.org/2000/svg"
		x="0"
		y="0"
		viewBox="0 0 486.5 486.5"
		id="volume">
		<path
			d="M251.6 68.9a22 22 0 00-16.1 6.7l-119 76.2H22.9a22 22 0 00-16.1 6.8 22 22 0 00-6.8 16V312a22 22 0 006.8 16 22 22 0 0016 6.9h93.7l119 76.1a22 22 0 0016 6.8 22 22 0 0016.2-6.8 22 22 0 006.7-16V91.6a22 22 0 00-6.7-16 22 22 0 00-16.1-6.8zM379.9 293.8a92 92 0 000-101.3 82.1 82.1 0 00-40.2-33.2 20 20 0 00-9-1.8c-6.2 0-11.5 2.2-16 6.6a21.8 21.8 0 00-6.8 16.3c0 5 1.4 9.2 4.3 12.7 2.8 3.4 6.3 6.4 10.3 9 4 2.4 8.1 5.2 12.2 8.1 4 3 7.5 7.2 10.3 12.7a43.7 43.7 0 014.3 20.4c0 8-1.4 14.9-4.3 20.3a36 36 0 01-10.3 12.7c-4 3-8.1 5.8-12.2 8.3-4 2.5-7.5 5.4-10.3 8.9a19.2 19.2 0 00-4.3 12.7c0 6.4 2.2 11.8 6.8 16.2 4.5 4.5 9.8 6.6 16 6.6 3.6 0 6.6-.5 9-1.7a84.5 84.5 0 0040.2-33.5z" />
		<path
			d="M375.8 75a25.8 25.8 0 00-9.3-1.8 22 22 0 00-16.1 6.8 22 22 0 00-6.8 16c0 9.3 4.7 16.4 14 21.1 13.3 7 22.3 12.2 27.1 15.8a135 135 0 0141.3 48.4c9.9 19.4 14.8 40 14.8 62 0 21.9-5 42.6-14.8 62a135 135 0 01-41.3 48.4c-4.8 3.6-13.8 8.8-27.2 15.7-9.2 4.8-13.9 11.8-13.9 21.1a22 22 0 006.8 16c4.5 4.6 10 6.9 16.4 6.9 2.9 0 5.9-.6 9-1.8 33.3-14 60.1-36.5 80.4-67.4a180.3 180.3 0 0030.3-101c0-36.4-10-70-30.3-100.9A176.2 176.2 0 00375.8 75z" />
	</symbol>
	<symbol
		stroke-width="0"
		fill="inherit"
		xmlns="http://www.w3.org/2000/svg"
		viewBox="0 0 24 24"
		id="pause">
		<g fill="inherit">
			<path
				d="M2.3 4c0-1.5 1.2-2.8 2.7-2.8h3c1.5 0 2.8 1.3 2.8 2.8v16c0 1.5-1.3 2.8-2.8 2.8H5A2.7 2.7 0 012.2 20zM13.3 4c0-1.5 1.2-2.8 2.7-2.8h3c1.5 0 2.8 1.3 2.8 2.8v16c0 1.5-1.3 2.8-2.8 2.8h-3a2.7 2.7 0 01-2.8-2.8z" />
		</g>
	</symbol>
	<symbol
		fill="inherit"
		stroke-width="0"
		xmlns="http://www.w3.org/2000/svg"
		viewBox="0 0 22 22"
		id="open-fullscreen">
		<path
			fill-rule="evenodd"
			clip-rule="evenodd"
			d="M3 3v5H0V2C0 .9.9 0 2 0h6v3H3ZM0 20v-6h3v5h5v3H2a2 2 0 0 1-2-2Zm14 2h6a2 2 0 0 0 2-2v-6h-3v5h-5v3Zm5-14h3V2a2 2 0 0 0-2-2h-6v3h5v5Z"
			fill="inherit" />
	</symbol>
	<symbol
		fill="inherit"
		stroke-width="0"
		xmlns="http://www.w3.org/2000/svg"
		viewBox="0 0 22 22"
		id="close-fullscreen">
		<path
			d="M0 5h8v1a2 2 0 0 1-2 2H0V5ZM22 5h-8v1c0 1.1.9 2 2 2h6V5ZM0 17h8v-1a2 2 0 0 0-2-2H0v3ZM22 17h-8v-1c0-1.1.9-2 2-2h6v3Z"
			fill="inherit" />
		<path
			d="M5 0v8h1a2 2 0 0 0 2-2V0H5ZM17 0v8h-1a2 2 0 0 1-2-2V0h3ZM5 22v-8h1a2 2 0 0 1 2 2v6H5ZM17 22v-8h-1a2 2 0 0 0-2 2v6h3Z"
			fill="inherit" />
	</symbol>
	<symbol
		fill="inherit"
		stroke-width="0"
		xmlns="http://www.w3.org/2000/svg"
		viewBox="0 0 22 16"
		id="cc">
		<path
			fill-rule="evenodd"
			clip-rule="evenodd"
			d="M0 2C0 .9.9 0 2 0h18a2 2 0 0 1 2 2v12a2 2 0 0 1-2 2H2a2 2 0 0 1-2-2V2Zm2 5c0-.6.4-1 1-1h10a1 1 0 1 1 0 2H3a1 1 0 0 1-1-1Zm7 3a1 1 0 1 0 0 2h10a1 1 0 1 0 0-2H9Zm7-3c0-.6.4-1 1-1h2a1 1 0 1 1 0 2h-2a1 1 0 0 1-1-1ZM3 10a1 1 0 1 0 0 2h2a1 1 0 1 0 0-2H3Z"
			fill="inherit" />
	</symbol>
	<symbol
		fill="inherit"
		stroke-width="0"
		viewBox="0 0 24 24"
		xmlns="http://www.w3.org/2000/svg"
		id="more">
		<path
			d="M19 9a3 3 0 0 0-2.8 2H3a1 1 0 0 0 0 2h13.2A3 3 0 1 0 19 9zM3 7h1.2a3 3 0 0 0 5.6 0H21a1 1 0 0 0 0-2H9.8a3 3 0 0 0-5.6 0H3a1 1 0 0 0 0 2zM21 17h-7.2a3 3 0 0 0-5.6 0H3a1 1 0 0 0 0 2h5.2a3 3 0 0 0 5.6 0H21a1 1 0 0 0 0-2z" />
	</symbol>
	<symbol
		xmlns="http://www.w3.org/2000/svg"
		viewBox="0 0 612 612"
		style="enable-background: new 0 0 612 612"
		fill="inherit"
		stroke-width="0"
		xml:space="preserve"
		id="speed">
		<path
			d="M175.2 239.6c.1-2-.5-3.9-1.8-5.4l-58.9-66.9a7.4 7.4 0 0 0-10.5-.7A306.1 306.1 0 0 0 37.3 250a7.4 7.4 0 0 0 3 10.1l78.2 42.8a7.4 7.4 0 0 0 10-3 202.4 202.4 0 0 1 44.2-55 7.4 7.4 0 0 0 2.5-5.2zM201.5 214.8a7.4 7.4 0 0 0 10 3.1 200 200 0 0 1 67-21.6c4-.5 7-4.2 6.4-8.3l-12-88.3c-.5-4-4.3-7-8.3-6.4-35.8 4.9-70 15.9-101.8 32.7-3.6 2-5 6.5-3.1 10l41.8 78.8zM105.8 334.3l-86-23.3a7.4 7.4 0 0 0-9.1 5.2A306.8 306.8 0 0 0 .3 410.8a7.4 7.4 0 0 0 7.8 7l89-4a7.4 7.4 0 0 0 7.1-7.8 203 203 0 0 1 6.8-62.5c1-4-1.3-8-5.2-9.2zM438.7 120.7A303.7 303.7 0 0 0 335.8 92a7.4 7.4 0 0 0-8.1 6.6l-8.6 88.7c-.4 4.1 2.6 7.8 6.7 8.2a200 200 0 0 1 67.8 19 7.4 7.4 0 0 0 9.9-3.6l38.7-80.2c1.8-3.7.2-8.2-3.5-10zM569.6 245.3c.5-1.9.2-3.9-.8-5.6-18.4-30.8-42-58-69.8-80.7a7.4 7.4 0 0 0-10.5 1.1l-56.2 69.1a7.4 7.4 0 0 0 1 10.5c18.5 15 34 33 46.3 53.4a7.4 7.4 0 0 0 10.1 2.5l76.6-45.7c1.6-1 2.9-2.7 3.3-4.6zM598 305a7.4 7.4 0 0 0-9.3-5l-85 26.7c-4 1.2-6.1 5.4-4.9 9.3a202.1 202.1 0 0 1 9 70 7.4 7.4 0 0 0 7 7.8l89.1 4h.3c4 0 7.3-3 7.5-7A306.8 306.8 0 0 0 598 304.9zM305.7 380.8H302l-120.6-71.1a7.6 7.6 0 0 0-10.7 10.2l65.8 123.3a69.2 69.2 0 0 0 20 56.5 69.2 69.2 0 0 0 49.3 20.4c18.6 0 36.1-7.3 49.3-20.4a69.2 69.2 0 0 0 20.4-49.3c0-18.6-7.2-36-20.4-49.2a69.2 69.2 0 0 0-49.3-20.4z" />
	</symbol>
	<symbol
		xmlns="http://www.w3.org/2000/svg"
		viewBox="0 0 247.9 247.9"
		style="enable-background: new 0 0 247.871 247.871"
		fill="inherit"
		stroke-width="0"
		xml:space="preserve"
		id="quality">
		<path
			d="M214 10.3H33.9A34 34 0 0 0 0 44.3v124.4a34 34 0 0 0 33.9 33.9h47.3v20H53.3v15h141.2v-15h-27.8v-20H214a34 34 0 0 0 33.9-33.9V44.2a34 34 0 0 0-34-33.9zm-62.2 210H96.1v-17.4h55.7v17.3zm81.2-51.6a19 19 0 0 1-19 19H33.9a19 19 0 0 1-19-19v-10.4H233v10.4zm0-25.3H15V44.2a19 19 0 0 1 19-19h180a19 19 0 0 1 19.1 19v99.2z" />
	</symbol>
</svg>
