<svg width="0" height="0" class="hidden">
	<symbol stroke="inherit" fill="none" xmlns="http://www.w3.org/2000/svg" viewBox="0 0 22 25" id="home">
		<g stroke="inherit" stroke-width="2">
			<path
				d="M20.7 11.2V22a2 2 0 0 1-2 2H3.4a2 2 0 0 1-2-2V11.1c0-.5.2-1 .6-1.4l7.4-7a2 2 0 0 1 2.7-.1l7.9 7c.4.5.7 1 .7 1.6Z" />
			<path d="M8.9 23.9h1V17a2 2 0 0 0-4 0V24h3Z" />
		</g>
	</symbol>
	<symbol stroke="inherit" fill="none" xmlns="http://www.w3.org/2000/svg" id="setting" version="1.1"
		viewBox="0 0 26 25">
		<g stroke="inherit" stroke-width="2">
			<path
				d="m14 1.7 7.8 4.5c.6.4 1 1 1 1.8v9a2 2 0 0 1-1 1.8L14 23.3a2 2 0 0 1-2 0L4 18.7a2 2 0 0 1-1-1.7V8a2 2 0 0 1 1-1.8L12 1.8a2 2 0 0 1 2 0Z" />
			<circle cx="13" cy="12.5" r="2.5" />
		</g>
	</symbol>
	<symbol stroke="inherit" fill="none" xmlns="http://www.w3.org/2000/svg" viewBox="0 0 21 22" id="subs">
		<g stroke="inherit" stroke-width="2">
			<rect width="18" height="13" x="1" y="7.1" rx="2" />
			<path stroke-linecap="round" d="M2.7 4h14.6M4.6 1h10.9" />
		</g>
	</symbol>
	<symbol fill="inherit" xmlns="http://www.w3.org/2000/svg" id="trend" version="1.1" viewBox="0 0 512 512">
		<path fill="inherit"
			d="m457.9 176.8-40.8-61.3c-8.3-12.3-27.5-6.5-27.5 8.3 0 29.3-4.6 58.9-13.3 87.3a101.3 101.3 0 0 0-39.5-51.3 68.9 68.9 0 0 1-20.1-97.6l26-38.9A15 15 0 0 0 330 0a201.7 201.7 0 0 0-142 57.4 195.2 195.2 0 0 0-58.7 128.9 112 112 0 0 1-7.6-40.7v-59a15 15 0 0 0-27.5-8.3l-20.2 30.3A336.6 336.6 0 0 0 18 296c0 119.1 96.2 216 214.4 216H279A215.7 215.7 0 0 0 458 176.8zM255.7 482a59.2 59.2 0 0 1-58.8-59.4c0-9.5 2.2-19.3 6-27.2l52.9-92.5 53.3 92.6a63.8 63.8 0 0 1 5.8 27 59.4 59.4 0 0 1-59.2 59.5zm71.9-6.5a91.3 91.3 0 0 0 3-102.7l-61.9-107.6-.1-.2a15 15 0 0 0-25.8 0l-.1.3c-75 131.3-56.2 98.7-61.6 107-2.5 3.7-3.8 7.2-5 9.5a91.7 91.7 0 0 0 7.9 93.7A186 186 0 0 1 48 296c0-57 15.1-111.7 43.8-159.3v9c0 37.9 14.8 73.5 41.6 100.4a15 15 0 0 0 25.6-10.6v-37.2A167 167 0 0 1 300.5 32.4l-8.8 13.2a99.2 99.2 0 0 0 28.4 139.2A72 72 0 0 1 352 245v27.7c0 15.8 21.4 20.8 28.4 6.7a339.5 339.5 0 0 0 36-110.8l16.5 24.8a186.1 186.1 0 0 1-105.3 282z" />
	</symbol>
	<symbol fill="inherit" stroke-width="0" xmlns="http://www.w3.org/2000/svg" viewBox="0 0 64 64" id="arrow">
		<path fill="inherit"
			d="M60.6 30.6a2 2 0 010 2.8l-10 10a3 3 0 01-4.2-4.3l4.1-4.1H6a3 3 0 010-6h44.5l-4-4a3 3 0 014.2-4.3z" />
	</symbol>
	<symbol id="exit" xmlns="http://www.w3.org/2000/svg" stroke-width="0" fill="inherit" viewBox="0 0 27 27">
		<g fill="inherit">
			<path
				d="M2.9 18a1 1 0 0 0-.6 1.4 12.6 12.6 0 1 0 0-11.7A1 1 0 0 0 3 9c.5.2 1.2 0 1.5-.6a10.4 10.4 0 1 1 0 10c-.3-.6-1-.8-1.5-.6Z" />
			<rect width="12.1" height="2.2" x="7.7" y="12.4" rx="1.1" />
			<rect width="2.2" height="5" x="10.3" y="10.5" rx="1.1" transform="rotate(60 10.3 10.5)" />
			<rect width="2.2" height="5" rx="1.1" transform="scale(1 -1) rotate(60 19.4 .7)" />
		</g>
	</symbol>
</svg>
