<svg width="0" height="0" class="hidden">
	<symbol
		stroke-width="0"
		fill="inherit"
		xmlns="http://www.w3.org/2000/svg"
		viewBox="0 0 46 46"
		style="enable-background: new 0 0 45.973 45.972"
		id="home">
		<path
			d="M44.8 21 25.9 2A4.2 4.2 0 0 0 20 2L1.2 21a4.1 4.1 0 0 0 3 7h2.4v13.5c0 2 1.6 3.6 3.6 3.6h3.2V32.9c0-.9.8-1.6 1.7-1.6h6.2c1 0 1.7.7 1.7 1.6v12.2h12.8c2 0 3.6-1.6 3.6-3.6V28h2.4a4.2 4.2 0 0 0 3-7z" />
	</symbol>
	<symbol
		stroke-width="0"
		fill="inherit"
		xmlns="http://www.w3.org/2000/svg"
		id="setting"
		version="1.1"
		viewBox="0 0 24 24">
		<path fill="none" d="M0 0h24v24H0z" />
		<path
			d="M10 2.2a10 10 0 0 1 4 0 4 4 0 0 0 2 2.9 4 4 0 0 0 3.5.2 10 10 0 0 1 2 3.6A4 4 0 0 0 20 12a4 4 0 0 0 1.5 3.1 10 10 0 0 1-2 3.6 4 4 0 0 0-3.5.2 4 4 0 0 0-2 2.9 10 10 0 0 1-4 0 4 4 0 0 0-2-2.9 4 4 0 0 0-3.5-.2 10 10 0 0 1-2-3.6A4 4 0 0 0 4 12a4 4 0 0 0-1.5-3.1 10 10 0 0 1 2-3.6A4 4 0 0 0 8 5.1a4 4 0 0 0 2-2.9zM12 15a3 3 0 1 0 0-6 3 3 0 0 0 0 6z" />
	</symbol>
	<symbol
		stroke-width="0"
		fill="inherit"
		xmlns="http://www.w3.org/2000/svg"
		viewBox="0 0 459.9 459.9"
		style="enable-background: new 0 0 459.863 459.863"
		id="subs">
		<path
			d="M396 194a106 106 0 0 1-77.4 44.2c26.6 31 43.8 70.4 47.1 113.6 1.3 16.2.4 24-.9 30.6a229 229 0 0 0 43.5-10.8c42.6-15.7 51.6-39 51.6-55.6 0-50.5-25.3-95.2-64-122zM276.7 199.4c10.7 6 22.4 9.1 34.5 9.1 45.9 0 81.2-44.3 81.2-96.7 0-52.4-35.3-96.7-81.2-96.7a72.8 72.8 0 0 0-50.7 21.2c20 25.6 31.5 59 31.5 94.7 0 23.5-5 47-15.3 68.4zM260 226.3a116.1 116.1 0 0 1-91.8 46.5c-36.3 0-68.7-17.2-91.9-46.5C30.4 256.3 0 308.3 0 367c0 18.1 10 43.4 57.2 60.8 29.5 10.8 69 16.8 111 16.8s81.4-6 111-16.8c47.2-17.4 57.1-42.7 57.1-60.8 0-58.9-30.4-110.8-76.3-140.8z" />
		<path
			d="M168.2 242.8c53 0 93.8-51.3 93.8-111.8 0-60.6-40.8-111.8-93.8-111.8S74.4 70.4 74.4 131c0 60.5 40.8 111.8 93.8 111.8z" />
	</symbol>
	<symbol
		fill="inherit"
		xmlns="http://www.w3.org/2000/svg"
		id="trend"
		version="1.1"
		stroke-width="0"
		viewBox="0 0 8 8">
		<path
			d="M2 0c1 2-2 3-2 5s2 3 2 3C1 6 4 5 4 3S2 0 2 0zm3 3c1 2-2 3-2 5h3c.4 0 1-.5 1-2 0-2-2-3-2-3z" />
	</symbol>
	<symbol
		fill="inherit"
		stroke-width="0"
		xmlns="http://www.w3.org/2000/svg"
		viewBox="0 0 64 64"
		id="arrow">
		<path
			fill="inherit"
			d="M60.6 30.6a2 2 0 010 2.8l-10 10a3 3 0 01-4.2-4.3l4.1-4.1H6a3 3 0 010-6h44.5l-4-4a3 3 0 014.2-4.3z" />
	</symbol>
	<symbol
		fill="inherit"
		stroke-width="0"
		xmlns="http://www.w3.org/2000/svg"
		xml:space="preserve"
		id="shortcuts"
		x="0"
		y="0"
		style="enable-background: new 0 0 454.519 454.519"
		version="1.1"
		viewBox="0 0 454.5 454.5">
		<path
			fill="inherit"
			stroke-width="0"
			d="M207.3 141.3a20 20 0 0 0 40 0v-37.7a20 20 0 0 0-40 0v37.7z" />
		<path
			fill="inherit"
			stroke-width="0"
			d="M242.3 0v55.9a50 50 0 0 1 35 47.7v37.7a50 50 0 0 1-35 47.7v37.3h-30V189a50 50 0 0 1-35-47.7v-37.7a50 50 0 0 1 35-47.7V0c-97 6.4-122.5 74.6-122.5 120.8v212.5c0 48.4 28 121.2 137.5 121.2s137.4-72.8 137.4-121.2V120.8C364.7 74.6 339.3 6.4 242.3 0z" />
	</symbol>
</svg>
