<svg width="0" height="0" class="hidden">
	<symbol fill="inherit" xmlns="http://www.w3.org/2000/svg" x="0" y="0" viewBox="0 0 109.1 109.1" id="play">
		<path d="M98.9 47.7L18.2 1A8 8 0 006.2 8v93.2a8 8 0 0012 6.9l80.7-46.6a8 8 0 000-13.8z" />
	</symbol>
	<symbol fill="inherit" xmlns="http://www.w3.org/2000/svg" x="0" y="0" viewBox="0 0 486.5 486.5" id="volume">
		<path
			d="M251.6 68.9a22 22 0 00-16.1 6.7l-119 76.2H22.9a22 22 0 00-16.1 6.8 22 22 0 00-6.8 16V312a22 22 0 006.8 16 22 22 0 0016 6.9h93.7l119 76.1a22 22 0 0016 6.8 22 22 0 0016.2-6.8 22 22 0 006.7-16V91.6a22 22 0 00-6.7-16 22 22 0 00-16.1-6.8zM379.9 293.8a92 92 0 000-101.3 82.1 82.1 0 00-40.2-33.2 20 20 0 00-9-1.8c-6.2 0-11.5 2.2-16 6.6a21.8 21.8 0 00-6.8 16.3c0 5 1.4 9.2 4.3 12.7 2.8 3.4 6.3 6.4 10.3 9 4 2.4 8.1 5.2 12.2 8.1 4 3 7.5 7.2 10.3 12.7a43.7 43.7 0 014.3 20.4c0 8-1.4 14.9-4.3 20.3a36 36 0 01-10.3 12.7c-4 3-8.1 5.8-12.2 8.3-4 2.5-7.5 5.4-10.3 8.9a19.2 19.2 0 00-4.3 12.7c0 6.4 2.2 11.8 6.8 16.2 4.5 4.5 9.8 6.6 16 6.6 3.6 0 6.6-.5 9-1.7a84.5 84.5 0 0040.2-33.5z" />
		<path
			d="M375.8 75a25.8 25.8 0 00-9.3-1.8 22 22 0 00-16.1 6.8 22 22 0 00-6.8 16c0 9.3 4.7 16.4 14 21.1 13.3 7 22.3 12.2 27.1 15.8a135 135 0 0141.3 48.4c9.9 19.4 14.8 40 14.8 62 0 21.9-5 42.6-14.8 62a135 135 0 01-41.3 48.4c-4.8 3.6-13.8 8.8-27.2 15.7-9.2 4.8-13.9 11.8-13.9 21.1a22 22 0 006.8 16c4.5 4.6 10 6.9 16.4 6.9 2.9 0 5.9-.6 9-1.8 33.3-14 60.1-36.5 80.4-67.4a180.3 180.3 0 0030.3-101c0-36.4-10-70-30.3-100.9A176.2 176.2 0 00375.8 75z" />
	</symbol>
	<symbol stroke-width="0" fill="inherit" xmlns="http://www.w3.org/2000/svg" viewBox="0 0 24 24" id="pause">
		<g fill="inherit">
			<path
				d="M2.3 4c0-1.5 1.2-2.8 2.7-2.8h3c1.5 0 2.8 1.3 2.8 2.8v16c0 1.5-1.3 2.8-2.8 2.8H5A2.7 2.7 0 012.2 20zM13.3 4c0-1.5 1.2-2.8 2.7-2.8h3c1.5 0 2.8 1.3 2.8 2.8v16c0 1.5-1.3 2.8-2.8 2.8h-3a2.7 2.7 0 01-2.8-2.8z" />
		</g>
	</symbol>
	<symbol fill="inherit" xmlns="http://www.w3.org/2000/svg" viewBox="0 0 357 357" id="fullscreen">
		<path fill="inherit"
			d="M51 229.5H0V357h127.5v-51H51v-76.5zm-51-102h51V51h76.5V0H0v127.5zM306 306h-76.5v51H357V229.5h-51V306zM229.5 0v51H306v76.5h51V0H229.5z" />
	</symbol>
	<symbol fill="inherit" xmlns="http://www.w3.org/2000/svg" x="0" y="0" viewBox="0 0 357 357" id="fullscreen-exit">
		<path
			d="M0 280.5h76.5V357h51V229.5H0v51zm76.5-204H0v51h127.5V0h-51v76.5zm153 280.5h51v-76.5H357v-51H229.5V357zm51-280.5V0h-51v127.5H357v-51h-76.5z" />
	</symbol>
</svg>
